<svg width="41" height="27" viewBox="0 0 41 27" fill="none" xmlns="http://www.w3.org/2000/svg">
<path d="M28.494 20.137C27.494 19.778 25.848 19.76 25.121 19.482C24.5609 19.3365 24.0319 19.0901 23.56 18.755C23.3597 17.9184 23.2723 17.0588 23.3 16.199C23.6721 15.8396 23.9733 15.4136 24.188 14.943C24.4053 14.1352 24.5496 13.3096 24.619 12.476C24.619 12.476 25.211 12.727 25.444 11.543C25.644 10.52 26.018 9.982 25.919 9.229C25.82 8.476 25.399 8.655 25.399 8.655C25.399 8.655 25.919 7.893 25.919 5.3C25.919 2.627 23.901 0 20.124 0C16.347 0 14.324 2.637 14.324 5.3C14.324 7.892 14.835 8.655 14.835 8.655C14.835 8.655 14.413 8.476 14.315 9.229C14.217 9.982 14.584 10.521 14.79 11.543C15.023 12.736 15.615 12.476 15.615 12.476C15.6852 13.3095 15.8294 14.1351 16.046 14.943C16.2608 15.4136 16.562 15.8396 16.934 16.199C16.9617 17.0588 16.8743 17.9184 16.674 18.755C16.2036 19.0905 15.6739 19.3341 15.113 19.473C14.395 19.751 12.754 19.787 11.74 20.146C10.5171 20.6043 9.46585 21.4296 8.7304 22.5088C7.99495 23.5879 7.61129 24.8682 7.63202 26.174H32.593C32.6181 24.8674 32.2373 23.5851 31.5032 22.5039C30.7691 21.4227 29.7177 20.5958 28.494 20.137Z" fill="#8D2026"/>
<path d="M9.737 15.769C10.7924 15.7557 11.8262 15.4683 12.737 14.935C11.347 12.827 12.1 10.369 11.813 8.073C11.7989 7.55059 11.6767 7.03676 11.4542 6.5639C11.2317 6.09104 10.9136 5.6694 10.5201 5.32555C10.1265 4.9817 9.66603 4.7231 9.16759 4.56604C8.66915 4.40898 8.14358 4.35687 7.624 4.413H7.584C7.06771 4.36455 6.54696 4.42229 6.05382 4.58266C5.56068 4.74303 5.10558 5.00263 4.71654 5.34549C4.3275 5.68835 4.01274 6.10721 3.79166 6.57628C3.57058 7.04535 3.44784 7.55471 3.431 8.073C3.144 10.36 3.942 13.096 2.516 14.935C3.368 15.706 5.516 15.68 5.516 15.68C5.57026 16.1838 5.53984 16.6932 5.426 17.187C5.11737 17.4438 4.74602 17.6139 4.35 17.68C3.56383 17.8503 2.7882 18.066 2.027 18.326C1.41721 18.6448 0.906103 19.1242 0.548868 19.7123C0.191633 20.3004 0.00184544 20.9749 0 21.663H7.2C7.8557 20.4954 8.85884 19.5612 10.07 18.99C10.7726 18.696 11.5245 18.5378 12.286 18.524C12.286 18.524 12.627 17.986 11.506 17.779C10.9101 17.6484 10.332 17.447 9.784 17.179C9.621 16.98 9.737 15.769 9.737 15.769Z" fill="#8D2026"/>
<path d="M30.5439 15.769C29.4886 15.7557 28.4548 15.4683 27.5439 14.935C28.9339 12.827 28.1809 10.369 28.4679 8.073C28.4821 7.55059 28.6042 7.03676 28.8267 6.5639C29.0493 6.09104 29.3673 5.6694 29.7609 5.32555C30.1544 4.9817 30.6149 4.7231 31.1134 4.56604C31.6118 4.40898 32.1374 4.35687 32.6569 4.413H32.6929C33.2092 4.36455 33.73 4.42229 34.2231 4.58266C34.7163 4.74303 35.1714 5.00263 35.5604 5.34549C35.9494 5.68835 36.2642 6.10721 36.4853 6.57628C36.7064 7.04535 36.8291 7.55471 36.8459 8.073C37.1329 10.36 36.3349 13.096 37.7609 14.935C36.9089 15.706 34.7609 15.68 34.7609 15.68C34.7067 16.1838 34.7371 16.6932 34.8509 17.187C35.1596 17.4438 35.5309 17.6139 35.9269 17.68C36.7131 17.8503 37.4887 18.066 38.2499 18.326C38.8597 18.6448 39.3708 19.1242 39.7281 19.7123C40.0853 20.3004 40.2751 20.9749 40.2769 21.663H33.0769C32.4212 20.4954 31.4181 19.5612 30.2069 18.99C29.5044 18.696 28.7524 18.5378 27.9909 18.524C27.9909 18.524 27.6499 17.986 28.7709 17.779C29.3668 17.6484 29.9449 17.447 30.4929 17.179C30.6639 16.98 30.5439 15.769 30.5439 15.769Z" fill="#8D2026"/>
</svg>
