<svg width="16" height="16" viewBox="0 0 16 16" fill="none" xmlns="http://www.w3.org/2000/svg">
<path fill-rule="evenodd" clip-rule="evenodd" d="M8.5 7.49951H12C12.2761 7.49951 12.5 7.72337 12.5 7.99951C12.5 8.27565 12.2761 8.49951 12 8.49951H8.5V11.9995C8.5 12.2757 8.27614 12.4995 8 12.4995C7.72386 12.4995 7.5 12.2757 7.5 11.9995V8.49951H4C3.72386 8.49951 3.5 8.27565 3.5 7.99951C3.5 7.72337 3.72386 7.49951 4 7.49951H7.5V3.99951C7.5 3.72337 7.72386 3.49951 8 3.49951C8.27614 3.49951 8.5 3.72337 8.5 3.99951V7.49951ZM8 0.499512C12.1356 0.499512 15.5 3.86392 15.5 7.99951C15.5 12.1351 12.1356 15.4995 8 15.4995C3.86441 15.4995 0.5 12.1351 0.5 7.99951C0.5 3.86392 3.86441 0.499512 8 0.499512ZM8 1.38186C4.34529 1.38186 1.38235 4.34481 1.38235 7.99951C1.38235 11.6542 4.34529 14.6172 8 14.6172C11.6547 14.6172 14.6176 11.6542 14.6176 7.99951C14.6176 4.34481 11.6547 1.38186 8 1.38186Z" fill="white"/>
</svg>
