<svg width="50" height="50" viewBox="0 0 50 50" fill="none" xmlns="http://www.w3.org/2000/svg">
<path fill-rule="evenodd" clip-rule="evenodd" d="M25 7.35461C31.9036 7.35461 37.5 12.9511 37.5 19.8546V20.6075C37.5 23.3697 36.6369 26.0629 35.0314 28.3106L25.0247 42.32C25.0126 42.337 24.9874 42.337 24.9753 42.32L14.9686 28.3106C13.3631 26.0629 12.5 23.3697 12.5 20.6075V19.8546C12.5 12.9511 18.0964 7.35461 25 7.35461ZM30.4899 18.6761C30.1085 17.0054 28.9872 15.5993 27.4432 14.8557C25.8993 14.1122 24.1007 14.1122 22.5568 14.8557C21.0128 15.5993 19.8915 17.0054 19.5101 18.6761C19.1288 20.3468 19.529 22.1002 20.5975 23.44C21.6659 24.7798 23.2863 25.5602 25 25.5602C26.7137 25.5602 28.3341 24.7798 29.4025 23.44C30.471 22.1002 30.8712 20.3468 30.4899 18.6761Z" fill="#FEC400"/>
<path d="M35.0314 28.3106L36.252 29.1825L36.252 29.1825L35.0314 28.3106ZM25.0247 42.32L23.8041 41.4482L23.804 41.4482L25.0247 42.32ZM24.9753 42.32L26.196 41.4482L26.1959 41.4482L24.9753 42.32ZM14.9686 28.3106L13.748 29.1825L13.748 29.1825L14.9686 28.3106ZM27.4432 14.8557L28.094 13.5043L28.094 13.5043L27.4432 14.8557ZM30.4899 18.6761L31.9523 18.3423L31.9523 18.3423L30.4899 18.6761ZM22.5568 14.8557L21.9059 13.5043L22.5568 14.8557ZM19.5101 18.6761L18.0477 18.3423L18.0477 18.3423L19.5101 18.6761ZM20.5975 23.44L21.7702 22.5048L21.7702 22.5048L20.5975 23.44ZM29.4025 23.44L30.5753 24.3753L30.5753 24.3753L29.4025 23.44ZM39 19.8546C39 12.1226 32.732 5.85461 25 5.85461V8.85461C31.0751 8.85461 36 13.7795 36 19.8546H39ZM39 20.6075V19.8546H36V20.6075H39ZM36.252 29.1825C38.0392 26.6804 39 23.6824 39 20.6075H36C36 23.0571 35.2346 25.4455 33.8108 27.4388L36.252 29.1825ZM26.2453 43.1919L36.252 29.1825L33.8108 27.4388L23.8041 41.4482L26.2453 43.1919ZM23.7547 43.1918C24.365 44.0464 25.635 44.0464 26.2453 43.1918L23.804 41.4482C24.3902 40.6276 25.6098 40.6276 26.196 41.4482L23.7547 43.1918ZM13.748 29.1825L23.7547 43.1919L26.1959 41.4482L16.1892 27.4388L13.748 29.1825ZM11 20.6075C11 23.6824 11.9608 26.6804 13.748 29.1825L16.1892 27.4388C14.7654 25.4455 14 23.0571 14 20.6075H11ZM11 19.8546V20.6075H14V19.8546H11ZM25 5.85461C17.268 5.85461 11 12.1226 11 19.8546H14C14 13.7795 18.9249 8.85461 25 8.85461V5.85461ZM26.7924 16.2072C27.9251 16.7526 28.7477 17.7842 29.0275 19.0099L31.9523 18.3423C31.4694 16.2266 30.0493 14.4459 28.094 13.5043L26.7924 16.2072ZM23.2076 16.2072C24.3403 15.6617 25.6597 15.6617 26.7924 16.2072L28.094 13.5043C26.1388 12.5627 23.8612 12.5627 21.9059 13.5043L23.2076 16.2072ZM20.9725 19.0099C21.2523 17.7842 22.0749 16.7526 23.2076 16.2072L21.9059 13.5043C19.9507 14.4459 18.5306 16.2266 18.0477 18.3423L20.9725 19.0099ZM21.7702 22.5048C20.9864 21.5219 20.6928 20.2355 20.9725 19.0099L18.0477 18.3423C17.5648 20.4581 18.0716 22.6786 19.4247 24.3753L21.7702 22.5048ZM25 24.0602C23.7428 24.0602 22.5541 23.4877 21.7702 22.5048L19.4247 24.3753C20.7778 26.072 22.8298 27.0602 25 27.0602V24.0602ZM28.2298 22.5048C27.4459 23.4877 26.2572 24.0602 25 24.0602V27.0602C27.1702 27.0602 29.2222 26.072 30.5753 24.3753L28.2298 22.5048ZM29.0275 19.0099C29.3072 20.2355 29.0136 21.5219 28.2298 22.5048L30.5753 24.3753C31.9284 22.6786 32.4352 20.4581 31.9523 18.3423L29.0275 19.0099Z" fill="#FEC400"/>
</svg>
