<svg width="19" height="19" viewBox="0 0 19 19" fill="none" xmlns="http://www.w3.org/2000/svg">
<path d="M7.81833 17.7121L1.24567 11.1395C0.85167 10.7455 0.74982 10.5616 0.682813 10.3405C0.615807 10.1194 0.615807 9.89334 0.682813 9.67226C0.74982 9.45119 0.851671 9.26729 1.24567 8.87329L9.28764 0.831322C9.51587 0.603096 9.60308 0.532412 9.71075 0.465078C9.81841 0.397744 9.92791 0.352391 10.0517 0.323871C10.1754 0.295351 10.287 0.283664 10.6098 0.283664L17.0757 0.283663C17.632 0.283663 17.8337 0.341434 18.0372 0.449995C18.2407 0.558556 18.4005 0.717909 18.5097 0.921073C18.6188 1.12424 18.6772 1.3258 18.6788 1.88207L18.6975 8.31988C18.6985 8.64346 18.687 8.75548 18.6586 8.87967C18.6303 9.00385 18.5849 9.11378 18.5175 9.22185C18.45 9.32992 18.3792 9.41744 18.1504 9.64625L10.0845 17.7121C9.6905 18.1061 9.50661 18.208 9.28553 18.275C9.06446 18.342 8.83837 18.342 8.6173 18.275C8.39622 18.208 8.21233 18.1061 7.81833 17.7121ZM9.20062 16.8282L17.2665 8.76237C17.3817 8.64712 17.4242 8.60239 17.4435 8.57863C17.4465 8.54813 17.448 8.48649 17.4475 8.32351L17.4288 1.88571C17.4281 1.65971 17.4251 1.57955 17.4186 1.54291C17.3819 1.53643 17.3017 1.53366 17.0757 1.53366H10.6098C10.4471 1.53366 10.3855 1.53529 10.355 1.53838C10.3313 1.55774 10.2866 1.60012 10.1715 1.71521L2.12955 9.75718C1.96957 9.91716 1.91479 9.97585 1.89344 10.0064C1.91479 10.0369 1.96957 10.0956 2.12955 10.2556L8.70221 16.8282C8.86219 16.9882 8.92089 17.043 8.95142 17.0644C8.98195 17.043 9.04064 16.9882 9.20062 16.8282ZM15.4159 3.56951C16.3922 4.54582 16.3922 6.12874 15.4159 7.10505C14.4396 8.08136 12.8567 8.08136 11.8803 7.10505C10.904 6.12874 10.904 4.54582 11.8803 3.56951C12.8567 2.5932 14.4396 2.5932 15.4159 3.56951ZM14.532 4.4534C14.0438 3.96524 13.2524 3.96524 12.7642 4.4534C12.2761 4.94155 12.2761 5.73301 12.7642 6.22116C13.2524 6.70932 14.0438 6.70932 14.532 6.22116C15.0202 5.73301 15.0202 4.94155 14.532 4.4534ZM8.50947 13.1L5.85782 10.4483C5.61375 10.2042 5.61375 9.80852 5.85782 9.56444C6.1019 9.32036 6.49763 9.32036 6.74171 9.56444L9.39336 12.2161C9.63744 12.4602 9.63744 12.8559 9.39336 13.1C9.14928 13.3441 8.75355 13.3441 8.50947 13.1ZM10.2772 11.3322L7.62559 8.68056C7.38151 8.43648 7.38151 8.04075 7.62559 7.79667C7.86967 7.55259 8.2654 7.55259 8.50947 7.79667L11.1611 10.4483C11.4052 10.6924 11.4052 11.0881 11.1611 11.3322C10.917 11.5763 10.5213 11.5763 10.2772 11.3322Z" fill="#E16104"/>
</svg>
