<svg width="25" height="25" viewBox="0 0 25 25" fill="none" xmlns="http://www.w3.org/2000/svg">
<path d="M20.1206 9.13524L18.5253 10.7306C18.2202 11.0357 17.7256 11.0357 17.4205 10.7306C17.1154 10.4255 17.1154 9.93081 17.4205 9.62571L19.1384 7.90782C19.0607 7.82473 18.9816 7.74286 18.9011 7.66224C17.9728 6.73533 16.8763 5.9944 15.6725 5.4853C14.6681 5.06097 13.6002 4.8008 12.5 4.71711V7.03125C12.5 7.46272 12.1502 7.8125 11.7188 7.8125C11.2873 7.8125 10.9375 7.46272 10.9375 7.03125V4.71711C9.83734 4.8008 8.7695 5.06094 7.76526 5.48517C6.56123 5.9944 5.46474 6.73533 4.53724 7.66137C4.4497 7.74904 4.36383 7.83819 4.27967 7.92877L5.95285 9.60195C6.25795 9.90705 6.25795 10.4017 5.95285 10.7068C5.64775 11.0119 5.15309 11.0119 4.848 10.7068L3.30053 9.15934C2.93197 9.70372 2.61668 10.283 2.3603 10.89C1.83592 12.1313 1.5625 13.4672 1.5625 14.8438C1.5625 15.1057 1.57242 15.3662 1.59211 15.625H3.90625C4.33772 15.625 4.6875 15.9748 4.6875 16.4062C4.6875 16.8377 4.33772 17.1875 3.90625 17.1875H1.83419C1.96424 17.7383 2.14018 18.2765 2.3603 18.7975C2.5282 19.195 2.3421 19.6533 1.94464 19.8212C1.54718 19.9891 1.08886 19.803 0.920954 19.4056C0.315943 17.9734 0 16.4292 0 14.8438C0 13.2573 0.315713 11.7147 0.920954 10.2819C1.50823 8.89171 2.36214 7.62845 3.43238 6.55651C4.50221 5.48838 5.76665 4.63395 7.15692 4.04595C8.58912 3.44094 10.1333 3.125 11.7188 3.125C13.3042 3.125 14.8484 3.44094 16.2809 4.04608C17.6709 4.63395 18.9353 5.48838 20.006 6.55738C21.0754 7.62845 21.9293 8.89171 22.5165 10.2819C23.1218 11.7147 23.4375 13.2573 23.4375 14.8438C23.4375 16.4292 23.1216 17.9734 22.5165 19.4056C22.3486 19.803 21.8903 19.9891 21.4929 19.8212C21.0954 19.6533 20.9093 19.195 21.0772 18.7975C21.2973 18.2765 21.4733 17.7383 21.6033 17.1875H19.5312C19.0998 17.1875 18.75 16.8377 18.75 16.4062C18.75 15.9748 19.0998 15.625 19.5312 15.625H21.8454C21.8651 15.3662 21.875 15.1057 21.875 14.8438C21.875 13.4672 21.6016 12.1313 21.0772 10.89C20.817 10.274 20.4962 9.68653 20.1206 9.13524ZM10.6809 17.4441C10.0707 16.8339 10.0636 15.8517 10.6649 15.2504C11.2662 14.649 15.168 12.1215 15.5857 12.5393C16.0035 12.957 13.476 16.8588 12.8746 17.4601C12.2733 18.0614 11.2911 18.0543 10.6809 17.4441Z" fill="#198754"/>
</svg>
