<svg width="25" height="25" viewBox="0 0 25 25" fill="none" xmlns="http://www.w3.org/2000/svg">
<path fill-rule="evenodd" clip-rule="evenodd" d="M9.17969 4.6875H4.49219L4.49219 9.375H9.17969V4.6875ZM4.49219 3.125C3.62924 3.125 2.92969 3.82456 2.92969 4.6875V9.375C2.92969 10.2379 3.62924 10.9375 4.49219 10.9375H9.17969C10.0426 10.9375 10.7422 10.2379 10.7422 9.375V4.6875C10.7422 3.82456 10.0426 3.125 9.17969 3.125H4.49219Z" fill="#FEC514"/>
<path fill-rule="evenodd" clip-rule="evenodd" d="M9.17969 15.625H4.49219L4.49219 20.3125H9.17969V15.625ZM4.49219 14.0625C3.62924 14.0625 2.92969 14.7621 2.92969 15.625V20.3125C2.92969 21.1754 3.62924 21.875 4.49219 21.875H9.17969C10.0426 21.875 10.7422 21.1754 10.7422 20.3125V15.625C10.7422 14.7621 10.0426 14.0625 9.17969 14.0625H4.49219Z" fill="#FEC514"/>
<path fill-rule="evenodd" clip-rule="evenodd" d="M20.1172 4.6875H15.4297V9.375H20.1172V4.6875ZM15.4297 3.125C14.5667 3.125 13.8672 3.82456 13.8672 4.6875V9.375C13.8672 10.2379 14.5667 10.9375 15.4297 10.9375H20.1172C20.9801 10.9375 21.6797 10.2379 21.6797 9.375V4.6875C21.6797 3.82456 20.9801 3.125 20.1172 3.125H15.4297Z" fill="#FEC514"/>
<path fill-rule="evenodd" clip-rule="evenodd" d="M20.1172 15.625H15.4297V20.3125H20.1172V15.625ZM15.4297 14.0625C14.5667 14.0625 13.8672 14.7621 13.8672 15.625V20.3125C13.8672 21.1754 14.5667 21.875 15.4297 21.875H20.1172C20.9801 21.875 21.6797 21.1754 21.6797 20.3125V15.625C21.6797 14.7621 20.9801 14.0625 20.1172 14.0625H15.4297Z" fill="#FEC514"/>
</svg>
