<svg width="50" height="50" viewBox="0 0 50 50" fill="none" xmlns="http://www.w3.org/2000/svg">
<path fill-rule="evenodd" clip-rule="evenodd" d="M25 7.35456C31.9036 7.35456 37.5 12.951 37.5 19.8546V20.6075C37.5 23.3697 36.6369 26.0629 35.0314 28.3106L25.0247 42.32C25.0126 42.3369 24.9874 42.3369 24.9753 42.32L14.9686 28.3106C13.3631 26.0629 12.5 23.3697 12.5 20.6075V19.8546C12.5 12.951 18.0964 7.35456 25 7.35456ZM30.4899 18.6761C30.1085 17.0053 28.9872 15.5992 27.4432 14.8557C25.8993 14.1121 24.1007 14.1121 22.5568 14.8557C21.0128 15.5992 19.8915 17.0053 19.5101 18.6761C19.1288 20.3468 19.529 22.1002 20.5975 23.44C21.6659 24.7798 23.2863 25.5601 25 25.5601C26.7137 25.5601 28.3341 24.7798 29.4025 23.44C30.471 22.1002 30.8712 20.3468 30.4899 18.6761Z" fill="#F44336"/>
<path d="M35.0314 28.3106L36.252 29.1824L36.252 29.1824L35.0314 28.3106ZM25.0247 42.32L26.2452 43.1919L26.2453 43.1918L25.0247 42.32ZM24.9753 42.32L23.7547 43.1918L23.7548 43.1919L24.9753 42.32ZM14.9686 28.3106L16.1892 27.4387L16.1892 27.4387L14.9686 28.3106ZM27.4432 14.8557L28.094 13.5042L28.094 13.5042L27.4432 14.8557ZM30.4899 18.6761L31.9523 18.3423L31.9523 18.3423L30.4899 18.6761ZM22.5568 14.8557L21.9059 13.5042L21.9059 13.5042L22.5568 14.8557ZM19.5101 18.6761L18.0477 18.3423L18.0477 18.3423L19.5101 18.6761ZM29.4025 23.44L30.5753 24.3752L30.5753 24.3752L29.4025 23.44ZM39 19.8546C39 12.1226 32.732 5.85456 25 5.85456V8.85456C31.0751 8.85456 36 13.7794 36 19.8546H39ZM39 20.6075V19.8546H36V20.6075H39ZM36.252 29.1824C38.0392 26.6803 39 23.6823 39 20.6075H36C36 23.057 35.2346 25.4454 33.8108 27.4387L36.252 29.1824ZM26.2453 43.1918L36.252 29.1824L33.8108 27.4387L23.8041 41.4481L26.2453 43.1918ZM23.7548 43.1919C24.3651 44.0463 25.6349 44.0463 26.2452 43.1919L23.8041 41.4481C24.3903 40.6276 25.6097 40.6276 26.1959 41.4481L23.7548 43.1919ZM13.748 29.1824L23.7547 43.1918L26.1959 41.4481L16.1892 27.4387L13.748 29.1824ZM11 20.6075C11 23.6823 11.9608 26.6803 13.748 29.1824L16.1892 27.4387C14.7654 25.4454 14 23.057 14 20.6075H11ZM11 19.8546V20.6075H14V19.8546H11ZM25 5.85456C17.268 5.85456 11 12.1226 11 19.8546H14C14 13.7794 18.9249 8.85456 25 8.85456V5.85456ZM26.7924 16.2071C27.9251 16.7526 28.7477 17.7842 29.0275 19.0098L31.9523 18.3423C31.4694 16.2265 30.0493 14.4458 28.094 13.5042L26.7924 16.2071ZM23.2076 16.2071C24.3403 15.6617 25.6597 15.6617 26.7924 16.2071L28.094 13.5042C26.1388 12.5626 23.8612 12.5626 21.9059 13.5042L23.2076 16.2071ZM20.9725 19.0098C21.2523 17.7842 22.0749 16.7526 23.2076 16.2071L21.9059 13.5042C19.9507 14.4458 18.5306 16.2265 18.0477 18.3423L20.9725 19.0098ZM21.7702 22.5047C20.9864 21.5218 20.6928 20.2355 20.9725 19.0098L18.0477 18.3423C17.5648 20.458 18.0716 22.6785 19.4247 24.3752L21.7702 22.5047ZM25 24.0601C23.7428 24.0601 22.554 23.4877 21.7702 22.5047L19.4247 24.3752C20.7778 26.0719 22.8298 27.0601 25 27.0601V24.0601ZM28.2298 22.5047C27.4459 23.4877 26.2572 24.0601 25 24.0601V27.0601C27.1702 27.0601 29.2222 26.0719 30.5753 24.3752L28.2298 22.5047ZM29.0275 19.0098C29.3072 20.2355 29.0136 21.5218 28.2298 22.5047L30.5753 24.3752C31.9284 22.6785 32.4352 20.458 31.9523 18.3423L29.0275 19.0098Z" fill="#F44336"/>
</svg>
