<svg width="24" height="24" viewBox="0 0 24 24" fill="none" xmlns="http://www.w3.org/2000/svg">
<path fill-rule="evenodd" clip-rule="evenodd" d="M12.0001 3.53025C15.3138 3.53025 18 6.21654 18 9.53025V9.89164C18 11.2175 17.5858 12.5102 16.8151 13.5891L12.0119 20.3137C12.0061 20.3218 11.994 20.3218 11.9882 20.3137L7.18497 13.5891C6.41433 12.5102 6.00005 11.2175 6.00005 9.89164V9.53025C6.00005 6.21654 8.68634 3.53025 12.0001 3.53025ZM14.6352 8.96456C14.4522 8.16262 13.9139 7.48768 13.1728 7.13078C12.4317 6.77389 11.5684 6.77389 10.8273 7.13078C10.0862 7.48768 9.54795 8.16262 9.36491 8.96456C9.18187 9.7665 9.37397 10.6081 9.88683 11.2513C10.3997 11.8944 11.1775 12.2689 12.0001 12.2689C12.8226 12.2689 13.6004 11.8944 14.1133 11.2513C14.6261 10.6081 14.8182 9.7665 14.6352 8.96456Z" fill="#F44336"/>
<path d="M16.8151 13.5891L15.5945 12.7173L16.8151 13.5891ZM12.0119 20.3137L10.7913 19.4418L10.7913 19.4418L12.0119 20.3137ZM11.9882 20.3137L13.2088 19.4418L13.2088 19.4418L11.9882 20.3137ZM7.18497 13.5891L5.96437 14.461L5.96437 14.461L7.18497 13.5891ZM13.1728 7.13078L13.8236 5.77933L13.8236 5.77933L13.1728 7.13078ZM10.8273 7.13078L10.1765 5.77933L10.8273 7.13078ZM9.36491 8.96456L7.90252 8.63078L7.90252 8.63078L9.36491 8.96456ZM9.88683 11.2513L8.71409 12.1865L8.71409 12.1865L9.88683 11.2513ZM14.1133 11.2513L15.286 12.1865L15.286 12.1865L14.1133 11.2513ZM19.5 9.53025C19.5 5.38811 16.1422 2.03025 12.0001 2.03025V5.03025C14.4853 5.03025 16.5 7.04497 16.5 9.53025H19.5ZM19.5 9.89164V9.53025H16.5V9.89164H19.5ZM18.0357 14.461C18.9881 13.1277 19.5 11.5301 19.5 9.89164H16.5C16.5 10.9049 16.1835 11.8928 15.5945 12.7173L18.0357 14.461ZM13.2325 21.1855L18.0357 14.461L15.5945 12.7173L10.7913 19.4418L13.2325 21.1855ZM10.7676 21.1855C11.3716 22.0312 12.6285 22.0312 13.2325 21.1855L10.7913 19.4418C11.3837 18.6124 12.6164 18.6124 13.2088 19.4418L10.7676 21.1855ZM5.96437 14.461L10.7676 21.1855L13.2088 19.4418L8.40557 12.7173L5.96437 14.461ZM4.50005 9.89164C4.50005 11.5301 5.01201 13.1277 5.96437 14.461L8.40557 12.7173C7.81664 11.8928 7.50005 10.9049 7.50005 9.89164H4.50005ZM4.50005 9.53025L4.50005 9.89164H7.50005V9.53025H4.50005ZM12.0001 2.03025C7.85791 2.03025 4.50005 5.38812 4.50005 9.53025H7.50005C7.50005 7.04497 9.51477 5.03025 12.0001 5.03025V2.03025ZM12.522 8.48223C12.8518 8.64107 13.0913 8.94145 13.1728 9.29834L16.0976 8.63078C15.813 7.3838 14.976 6.33429 13.8236 5.77933L12.522 8.48223ZM11.4781 8.48223C11.8079 8.3234 12.1922 8.3234 12.522 8.48223L13.8236 5.77933C12.6712 5.22437 11.3289 5.22437 10.1765 5.77933L11.4781 8.48223ZM10.8273 9.29834C10.9088 8.94145 11.1483 8.64107 11.4781 8.48223L10.1765 5.77933C9.02409 6.33429 8.18713 7.3838 7.90252 8.63078L10.8273 9.29834ZM11.0596 10.316C10.8313 10.0298 10.7458 9.65524 10.8273 9.29834L7.90252 8.63078C7.6179 9.87776 7.91661 11.1865 8.71409 12.1865L11.0596 10.316ZM12.0001 10.7689C11.634 10.7689 11.2878 10.6022 11.0596 10.316L8.71409 12.1865C9.51156 13.1865 10.721 13.7689 12.0001 13.7689L12.0001 10.7689ZM12.9405 10.316C12.7123 10.6022 12.3661 10.7689 12.0001 10.7689L12.0001 13.7689C13.2791 13.7689 14.4885 13.1865 15.286 12.1865L12.9405 10.316ZM13.1728 9.29834C13.2543 9.65524 13.1688 10.0298 12.9405 10.316L15.286 12.1865C16.0835 11.1865 16.3822 9.87776 16.0976 8.63078L13.1728 9.29834Z" fill="#F44336"/>
</svg>
