<svg width="16" height="16" viewBox="0 0 16 16" fill="none" xmlns="http://www.w3.org/2000/svg">
<path d="M11.2282 2.94165C11.4609 3.09041 11.5289 3.3996 11.3801 3.63225C11.2313 3.8649 10.9221 3.9329 10.6895 3.78414C9.8927 3.27466 8.9673 3 8 3C5.23858 3 3 5.23858 3 8C3 10.7614 5.23858 13 8 13C10.7614 13 13 10.7614 13 8C13 7.72386 13.2239 7.5 13.5 7.5C13.7761 7.5 14 7.72386 14 8C14 11.3137 11.3137 14 8 14C4.68629 14 2 11.3137 2 8C2 4.68629 4.68629 2 8 2C9.15965 2 10.2717 2.33007 11.2282 2.94165ZM14 1.5V4.5C14 5.32843 13.3284 6 12.5 6H9.5C9.22386 6 9 5.77614 9 5.5C9 5.22386 9.22386 5 9.5 5H12.5C12.7761 5 13 4.77614 13 4.5V1.5C13 1.22386 13.2239 1 13.5 1C13.7761 1 14 1.22386 14 1.5Z" fill="white"/>
</svg>
