<svg width="25" height="25" viewBox="0 0 25 25" fill="none" xmlns="http://www.w3.org/2000/svg">
<g clip-path="url(#clip0_113_10795)">
<path d="M18.75 14.0625C21.3388 14.0625 23.4375 16.1612 23.4375 18.75C23.4375 21.3388 21.3388 23.4375 18.75 23.4375C16.1612 23.4375 14.0625 21.3388 14.0625 18.75C14.0625 16.1612 16.1612 14.0625 18.75 14.0625ZM18.75 15.625C17.0241 15.625 15.625 17.0241 15.625 18.75C15.625 20.4759 17.0241 21.875 18.75 21.875C20.4759 21.875 21.875 20.4759 21.875 18.75C21.875 17.0241 20.4759 15.625 18.75 15.625ZM6.25 3.125C7.97589 3.125 9.375 4.52411 9.375 6.25C9.375 7.97589 7.97589 9.375 6.25 9.375C4.52411 9.375 3.125 7.97589 3.125 6.25C3.125 4.52411 4.52411 3.125 6.25 3.125ZM6.25 4.6875C5.38705 4.6875 4.6875 5.38705 4.6875 6.25C4.6875 7.11295 5.38705 7.8125 6.25 7.8125C7.11295 7.8125 7.8125 7.11295 7.8125 6.25C7.8125 5.38705 7.11295 4.6875 6.25 4.6875ZM6.25 12.5C9.70178 12.5 12.5 15.2982 12.5 18.75C12.5 22.2018 9.70178 25 6.25 25C2.79822 25 0 22.2018 0 18.75C0 15.2982 2.79822 12.5 6.25 12.5ZM6.25 14.0625C3.66117 14.0625 1.5625 16.1612 1.5625 18.75C1.5625 21.3388 3.66117 23.4375 6.25 23.4375C8.83883 23.4375 10.9375 21.3388 10.9375 18.75C10.9375 16.1612 8.83883 14.0625 6.25 14.0625ZM18.75 0C22.2018 0 25 2.79822 25 6.25C25 9.70178 22.2018 12.5 18.75 12.5C15.2982 12.5 12.5 9.70178 12.5 6.25C12.5 2.79822 15.2982 0 18.75 0ZM18.75 1.5625C16.1612 1.5625 14.0625 3.66117 14.0625 6.25C14.0625 8.83883 16.1612 10.9375 18.75 10.9375C21.3388 10.9375 23.4375 8.83883 23.4375 6.25C23.4375 3.66117 21.3388 1.5625 18.75 1.5625Z" fill="#73A33F"/>
</g>
<defs>
<clipPath id="clip0_113_10795">
<rect width="25" height="25" fill="white"/>
</clipPath>
</defs>
</svg>
